<svg width="300" height="80" viewBox="0 0 300 80" fill="none" xmlns="http://www.w3.org/2000/svg">
  <!-- Background is transparent -->
  
  <!-- TrashFire Text with graffiti style -->
  <g transform="translate(10, 50)">
    <!-- Outer jagged orange outline -->
    <path d="M0 0 L5 -2 L10 0 L15 -1 L20 0 L25 -2 L30 0 L35 -1 L40 0 L45 -2 L50 0 L55 -1 L60 0 L65 -2 L70 0 L75 -1 L80 0 L85 -2 L90 0 L95 -1 L100 0 L105 -2 L110 0 L115 -1 L120 0 L125 -2 L130 0 L135 -1 L140 0 L145 -2 L150 0 L155 -1 L160 0 L165 -2 L170 0 L175 -1 L180 0 L185 -2 L190 0 L195 -1 L200 0 L205 -2 L210 0 L215 -1 L220 0 L225 -2 L230 0 L235 -1 L240 0 L245 -2 L250 0 L255 -1 L260 0 L265 -2 L270 0 L275 -1 L280 0 L285 -2 L290 0 L295 -1 L300 0 L300 30 L295 32 L290 30 L285 31 L280 30 L275 32 L270 30 L265 31 L260 30 L255 32 L250 30 L245 31 L240 30 L235 32 L230 30 L225 31 L220 30 L215 32 L210 30 L205 31 L200 30 L195 32 L190 30 L185 31 L180 30 L175 32 L170 30 L165 31 L160 30 L155 32 L150 30 L145 31 L140 30 L135 32 L130 30 L125 31 L120 30 L115 32 L110 30 L105 31 L100 30 L95 32 L90 30 L85 31 L80 30 L75 32 L70 30 L65 31 L60 30 L55 32 L50 30 L45 31 L40 30 L35 32 L30 30 L25 31 L20 30 L15 32 L10 30 L5 31 L0 30 Z" fill="#FF6B35" stroke="#1E40AF" stroke-width="1"/>
    
    <!-- Inner text with orange fill and white highlights -->
    <text x="0" y="25" font-family="Arial, sans-serif" font-size="28" font-weight="bold" fill="#FF6B35" stroke="#1E40AF" stroke-width="1.5">
      TRASHFIRE
    </text>
    
    <!-- White highlight on top edges -->
    <text x="0" y="22" font-family="Arial, sans-serif" font-size="28" font-weight="bold" fill="white" opacity="0.8">
      TRASHFIRE
    </text>
  </g>
  
  <!-- Flame graphic above SH -->
  <g transform="translate(140, 5)">
    <!-- Outer blue flame -->
    <path d="M20 15 L25 5 L30 8 L35 3 L40 6 L45 2 L50 5 L55 0 L60 3 L65 1 L70 4 L75 0 L80 3 L85 1 L90 4 L95 0 L100 3 L105 1 L110 4 L115 0 L120 3 L125 1 L130 4 L135 0 L140 3 L145 1 L150 4 L155 0 L160 3 L165 1 L170 4 L175 0 L180 3 L185 1 L190 4 L195 0 L200 3 L205 1 L210 4 L215 0 L220 3 L225 1 L230 4 L235 0 L240 3 L245 1 L250 4 L255 0 L260 3 L265 1 L270 4 L275 0 L280 3 L285 1 L290 4 L295 0 L300 3 L300 25 L295 27 L290 25 L285 26 L280 25 L275 27 L270 25 L265 26 L260 25 L255 27 L250 25 L245 26 L240 25 L235 27 L230 25 L225 26 L220 25 L215 27 L210 25 L205 26 L200 25 L195 27 L190 25 L185 26 L180 25 L175 27 L170 25 L165 26 L160 25 L155 27 L150 25 L145 26 L140 25 L135 27 L130 25 L125 26 L120 25 L115 27 L110 25 L105 26 L100 25 L95 27 L90 25 L85 26 L80 25 L75 27 L70 25 L65 26 L60 25 L55 27 L50 25 L45 26 L40 25 L35 27 L30 25 L25 26 L20 25 Z" fill="#00BFFF" stroke="#1E40AF" stroke-width="1"/>
    
    <!-- Inner orange flame -->
    <path d="M30 20 L35 12 L40 15 L45 10 L50 13 L55 8 L60 11 L65 9 L70 12 L75 8 L80 11 L85 9 L90 12 L95 8 L100 11 L105 9 L110 12 L115 8 L120 11 L125 9 L130 12 L135 8 L140 11 L145 9 L150 12 L155 8 L160 11 L165 9 L170 12 L175 8 L180 11 L185 9 L190 12 L195 8 L200 11 L205 9 L210 12 L215 8 L220 11 L225 9 L230 12 L235 8 L240 11 L245 9 L250 12 L255 8 L260 11 L265 9 L270 12 L275 8 L280 11 L285 9 L290 12 L295 8 L300 11 L300 22 L295 24 L290 22 L285 23 L280 22 L275 24 L270 22 L265 23 L260 22 L255 24 L250 22 L245 23 L240 22 L235 24 L230 22 L225 23 L220 22 L215 24 L210 22 L205 23 L200 22 L195 24 L190 22 L185 23 L180 22 L175 24 L170 22 L165 23 L160 22 L155 24 L150 22 L145 23 L140 22 L135 24 L130 22 L125 23 L120 22 L115 24 L110 22 L105 23 L100 22 L95 24 L90 22 L85 23 L80 22 L75 24 L70 22 L65 23 L60 22 L55 24 L50 22 L45 23 L40 22 L35 24 L30 22 Z" fill="#FF6B35" stroke="#DC2626" stroke-width="1"/>
    
    <!-- Sparks and embers -->
    <circle cx="25" cy="15" r="2" fill="#FFD700"/>
    <circle cx="45" cy="12" r="1.5" fill="#FFD700"/>
    <circle cx="65" cy="14" r="1" fill="#FFD700"/>
    <circle cx="85" cy="11" r="1.5" fill="#FFD700"/>
    <circle cx="105" cy="13" r="1" fill="#FFD700"/>
    <circle cx="125" cy="10" r="1.5" fill="#FFD700"/>
    <circle cx="145" cy="12" r="1" fill="#FFD700"/>
    <circle cx="165" cy="9" r="1.5" fill="#FFD700"/>
    <circle cx="185" cy="11" r="1" fill="#FFD700"/>
    <circle cx="205" cy="8" r="1.5" fill="#FFD700"/>
    <circle cx="225" cy="10" r="1" fill="#FFD700"/>
    <circle cx="245" cy="7" r="1.5" fill="#FFD700"/>
    <circle cx="265" cy="9" r="1" fill="#FFD700"/>
    <circle cx="285" cy="6" r="1.5" fill="#FFD700"/>
    
    <!-- Teardrop drips -->
    <ellipse cx="40" cy="18" rx="3" ry="6" fill="#87CEEB" stroke="#1E40AF" stroke-width="1"/>
    <ellipse cx="80" cy="16" rx="2" ry="4" fill="#87CEEB" stroke="#1E40AF" stroke-width="1"/>
    <ellipse cx="120" cy="17" rx="2.5" ry="5" fill="#87CEEB" stroke="#1E40AF" stroke-width="1"/>
    <ellipse cx="160" cy="15" rx="2" ry="4" fill="#87CEEB" stroke="#1E40AF" stroke-width="1"/>
    <ellipse cx="200" cy="16" rx="2.5" ry="5" fill="#87CEEB" stroke="#1E40AF" stroke-width="1"/>
    <ellipse cx="240" cy="14" rx="2" ry="4" fill="#87CEEB" stroke="#1E40AF" stroke-width="1"/>
    <ellipse cx="280" cy="15" rx="2.5" ry="5" fill="#87CEEB" stroke="#1E40AF" stroke-width="1"/>
  </g>
  
  <!-- Orange splatters and drips around text -->
  <g opacity="0.7">
    <circle cx="20" cy="45" r="3" fill="#FF6B35"/>
    <circle cx="50" cy="48" r="2" fill="#FF6B35"/>
    <circle cx="80" cy="46" r="2.5" fill="#FF6B35"/>
    <circle cx="110" cy="49" r="2" fill="#FF6B35"/>
    <circle cx="140" cy="47" r="3" fill="#FF6B35"/>
    <circle cx="170" cy="50" r="2" fill="#FF6B35"/>
    <circle cx="200" cy="48" r="2.5" fill="#FF6B35"/>
    <circle cx="230" cy="51" r="2" fill="#FF6B35"/>
    <circle cx="260" cy="49" r="3" fill="#FF6B35"/>
    <circle cx="290" cy="52" r="2" fill="#FF6B35"/>
  </g>
</svg>
